<svg xmlns="http://www.w3.org/2000/svg" viewBox="0 0 112.012 127.937">
  <defs>
    <style>
      .cls-1 {
        fill: #ffc107;
      }

      .cls-2 {
        fill: #fff;
      }

      .cls-2, .cls-3 {
        stroke: #000;
        stroke-linecap: square;
        stroke-linejoin: round;
        stroke-miterlimit: 10;
        stroke-width: 2px;
      }

      .cls-3 {
        fill: none;
      }
    </style>
  </defs>
  <g id="그룹_60" data-name="그룹 60" transform="translate(1 1)">
    <path id="패스_612" data-name="패스 612" class="cls-1" d="M104.543,154.589s-3.5-10.334-2.767-10.9c11.392-7.974,20.261-8.625,20.993-8.3s6.184,8.951,6.184,8.951Z" transform="translate(-20.163 -28.431)"/>
    <path id="패스_613" data-name="패스 613" class="cls-2" d="M101.074,11V99.449h0c0,4.15-.325,7-16.274,7.4V22.392" transform="translate(-17.019 -3.27)"/>
    <g id="그룹_58" data-name="그룹 58" transform="translate(8.869 10.009)">
      <path id="패스_614" data-name="패스 614" class="cls-2" d="M68.952,112.258H21.92a9.585,9.585,0,0,1-9.52-9.52V23.32a9.585,9.585,0,0,1,9.52-9.52H68.952a9.585,9.585,0,0,1,9.52,9.52v79.417A9.532,9.532,0,0,1,68.952,112.258Z" transform="translate(-12.4 -13.8)"/>
    </g>
    <path id="패스_615" data-name="패스 615" class="cls-3" d="M61.187,84.93H39.543A3.786,3.786,0,0,1,35.8,81.187V59.543A3.786,3.786,0,0,1,39.543,55.8H61.187a3.786,3.786,0,0,1,3.743,3.743V81.187A3.841,3.841,0,0,1,61.187,84.93Z" transform="translate(-7.89 -11.616)"/>
    <g id="그룹_59" data-name="그룹 59" transform="translate(17.088 36.454)">
      <path id="패스_616" data-name="패스 616" class="cls-1" d="M52.234,57.285H45.155A3.264,3.264,0,0,1,41.9,54.03V49.555A3.264,3.264,0,0,1,45.155,46.3h7.079a3.264,3.264,0,0,1,3.255,3.255V54.03A3.264,3.264,0,0,1,52.234,57.285Z" transform="translate(-26.114 -46.3)"/>
      <path id="패스_617" data-name="패스 617" class="cls-1" d="M32.834,76.585H25.755A3.264,3.264,0,0,1,22.5,73.33V68.855A3.264,3.264,0,0,1,25.755,65.6h7.079a3.264,3.264,0,0,1,3.255,3.255V73.33A3.264,3.264,0,0,1,32.834,76.585Z" transform="translate(-22.5 -49.896)"/>
      <path id="패스_618" data-name="패스 618" class="cls-1" d="M70.934,76.585H63.855A3.264,3.264,0,0,1,60.6,73.33V68.855A3.264,3.264,0,0,1,63.855,65.6h7.079a3.264,3.264,0,0,1,3.255,3.255V73.33A3.264,3.264,0,0,1,70.934,76.585Z" transform="translate(-29.598 -49.896)"/>
      <path id="패스_619" data-name="패스 619" class="cls-1" d="M52.234,93.385H45.155A3.264,3.264,0,0,1,41.9,90.13V85.655A3.264,3.264,0,0,1,45.155,82.4h7.079a3.264,3.264,0,0,1,3.255,3.255V90.13A3.264,3.264,0,0,1,52.234,93.385Z" transform="translate(-26.114 -53.025)"/>
    </g>
    <path id="패스_620" data-name="패스 620" class="cls-3" d="M55.083,59.915H48.655A3.264,3.264,0,0,1,45.4,56.661V52.755A3.264,3.264,0,0,1,48.655,49.5h6.428a3.264,3.264,0,0,1,3.255,3.255v3.906A3.264,3.264,0,0,1,55.083,59.915Z" transform="translate(-9.679 -10.442)"/>
    <path id="패스_621" data-name="패스 621" class="cls-3" d="M36.6,78.315H30.255A3.264,3.264,0,0,1,27,75.061V71.155A3.264,3.264,0,0,1,30.255,67.9h6.428a3.264,3.264,0,0,1,3.255,3.255v3.906A3.39,3.39,0,0,1,36.6,78.315Z" transform="translate(-6.251 -13.87)"/>
    <path id="패스_622" data-name="패스 622" class="cls-3" d="M72.783,78.315H66.355A3.264,3.264,0,0,1,63.1,75.061V71.155A3.264,3.264,0,0,1,66.355,67.9h6.428a3.264,3.264,0,0,1,3.255,3.255v3.906A3.264,3.264,0,0,1,72.783,78.315Z" transform="translate(-12.976 -13.87)"/>
    <path id="패스_623" data-name="패스 623" class="cls-3" d="M55.083,94.315H48.655A3.264,3.264,0,0,1,45.4,91.061V87.155A3.264,3.264,0,0,1,48.655,83.9h6.428a3.264,3.264,0,0,1,3.255,3.255v3.906A3.264,3.264,0,0,1,55.083,94.315Z" transform="translate(-9.679 -16.851)"/>
    <path id="패스_624" data-name="패스 624" class="cls-2" d="M92.535,130.559s.57-5.126-1.3-7.323c0,0-25.143-14.809-25.469-17.739-.325-2.848-2.278-11.961.244-11.148,0,0,2.441-.976,3.173-.488s5.045,9.195,8.788,10.5a3.792,3.792,0,0,0,3.134-.215,5.258,5.258,0,0,0,2.155-2.633L83.1,98.5s-3.987-7.567-5.777-7.649-11.148,2.034-11.31,1.058c-.732-3.906,1.546-5.533,7.079-7,5.615-1.465,5.045-2.6,7.242-1.953s16.518,6.672,16.6,7.486c.081.9,4.719,22.051,5.859,23.6,1.058,1.465,5.208,9.52,6.591,9.927" transform="translate(-13.281 -16.641)"/>
    <path id="패스_625" data-name="패스 625" class="cls-3" d="M100.744,153.089s-3.5-10.334-2.767-10.9c11.392-7.974,20.261-8.625,20.993-8.3s6.184,8.951,6.184,8.951Z" transform="translate(-19.455 -27.152)"/>
    <path id="패스_626" data-name="패스 626" class="cls-2" d="M60.961,97.406c-1.79-.163-7.161-1.058-7.161-2.116h0c0-1.058,5.615-1.709,7.323-1.79" transform="translate(-11.244 -18.64)"/>
    <path id="패스_627" data-name="패스 627" class="cls-2" d="M119.522,94.7l2.278.081a1.1,1.1,0,0,1,1.058,1.139l-.081,1.872a1.1,1.1,0,0,1-1.139,1.058l-58.18-1.383A1.1,1.1,0,0,1,62.4,96.329l.081-1.872A1.1,1.1,0,0,1,63.621,93.4l49.717,1.221Z" transform="translate(-12.846 -18.621)"/>
    <path id="패스_628" data-name="패스 628" class="cls-2" d="M23.144,1.5H9.393A7.9,7.9,0,0,0,1.5,9.393a8.024,8.024,0,0,0,7.893,7.974h67.13c-4.394,0-6.916-3.58-6.916-7.893A7.953,7.953,0,0,1,77.5,1.581H23.144Z" transform="translate(-1.5 -1.5)"/>
    <line id="선_10" data-name="선 10" class="cls-2" x2="11.555" transform="translate(36.128 59.237)"/>
    <line id="선_11" data-name="선 11" class="cls-2" y1="11.473" transform="translate(41.906 53.541)"/>
    <path id="패스_629" data-name="패스 629" class="cls-2" d="M101.674,9.693a8.137,8.137,0,1,0-16.274,0c0,4.477,2.6,8.193,7.13,8.193" transform="translate(-17.619 -1.5)"/>
  </g>
</svg>
