<svg xmlns="http://www.w3.org/2000/svg" viewBox="0 0 125.113 128.693">
  <defs>
    <style>
      .cls-1 {
        fill: none;
        stroke-width: 2px;
      }

      .cls-1, .cls-3 {
        stroke: #000;
        stroke-linecap: square;
        stroke-linejoin: round;
        stroke-miterlimit: 10;
      }

      .cls-2 {
        fill: #ffda44;
      }

      .cls-3 {
        fill: #fff;
        stroke-width: 3px;
      }
    </style>
  </defs>
  <g id="그룹_57" data-name="그룹 57" transform="translate(1 1)">
    <path id="패스_602" data-name="패스 602" class="cls-1" d="M77.548,1.5h29.293c13.426,0,24.33,10.253,24.33,22.7a21.853,21.853,0,0,1-7.161,16.03A24.963,24.963,0,0,1,106.841,46.9h-1.058L97.158,54.96V46.9H61.03C47.6,46.9,36.7,36.652,36.7,24.2a21.853,21.853,0,0,1,7.161-16.03A24.963,24.963,0,0,1,61.03,1.5H77.548Z" transform="translate(-8.058 -1.5)"/>
    <path id="패스_603" data-name="패스 603" class="cls-2" d="M62.39,16.474l1.627,4.964a.682.682,0,0,0,.651.488h5.208a.71.71,0,0,1,.407,1.3L66.052,26.32a.737.737,0,0,0-.244.814L67.435,32.1a.74.74,0,0,1-1.139.814l-4.231-3.092a.739.739,0,0,0-.814,0L57.02,32.911a.749.749,0,0,1-1.139-.814l1.627-4.964a.737.737,0,0,0-.244-.814l-4.231-3.092a.723.723,0,0,1,.407-1.3h5.208a.619.619,0,0,0,.651-.488l1.627-4.964A.763.763,0,0,1,62.39,16.474Z" transform="translate(-11.046 -4.187)"/>
    <path id="패스_604" data-name="패스 604" class="cls-2" d="M92.39,16.474l1.627,4.964a.682.682,0,0,0,.651.488h5.208a.71.71,0,0,1,.407,1.3L96.052,26.32a.737.737,0,0,0-.244.814L97.435,32.1a.74.74,0,0,1-1.139.814l-4.15-3.092a.739.739,0,0,0-.814,0L87.02,32.911a.749.749,0,0,1-1.139-.814l1.627-4.964a.737.737,0,0,0-.244-.814l-4.231-3.092a.723.723,0,0,1,.407-1.3h5.208a.619.619,0,0,0,.651-.488l1.627-4.964A.763.763,0,0,1,92.39,16.474Z" transform="translate(-16.635 -4.187)"/>
    <path id="패스_605" data-name="패스 605" class="cls-2" d="M120.39,16.474l1.627,4.964a.682.682,0,0,0,.651.488h5.208a.71.71,0,0,1,.407,1.3l-4.231,3.092a.737.737,0,0,0-.244.814l1.627,4.964a.74.74,0,0,1-1.139.814l-4.231-3.092a.739.739,0,0,0-.814,0l-4.231,3.092a.749.749,0,0,1-1.139-.814l1.627-4.964a.737.737,0,0,0-.244-.814l-4.231-3.092a.723.723,0,0,1,.407-1.3h5.208a.619.619,0,0,0,.651-.488l1.627-4.964A.763.763,0,0,1,120.39,16.474Z" transform="translate(-21.851 -4.187)"/>
    <path id="패스_606" data-name="패스 606" class="cls-1" d="M11,138.619V95.9H81.466v42.719" transform="translate(-3.27 -19.087)"/>
    <path id="패스_607" data-name="패스 607" class="cls-1" d="M25.911,65.6H82.219l5.208,24.655H1.5L7.2,65.6H25.911Z" transform="translate(-1.5 -13.442)"/>
    <line id="선_8" data-name="선 8" class="cls-3" x1="15.379" y2="0.163" transform="translate(48.578 93.25)"/>
    <line id="선_9" data-name="선 9" class="cls-3" x1="15.379" y2="0.163" transform="translate(48.578 98.458)"/>
    <rect id="사각형_59" data-name="사각형 59" class="cls-1" width="81.451" height="6.51" transform="translate(2.197 120.183)"/>
    <path id="패스_608" data-name="패스 608" class="cls-1" d="M64.29,18.688l1.627,4.964a.682.682,0,0,0,.651.488h5.208a.71.71,0,0,1,.407,1.3l-4.231,3.092a.737.737,0,0,0-.244.814l1.627,4.964a.74.74,0,0,1-1.139.814l-4.231-3.092a.739.739,0,0,0-.814,0L58.92,35.125a.749.749,0,0,1-1.139-.814l1.627-4.964a.737.737,0,0,0-.244-.814l-4.231-3.092a.723.723,0,0,1,.407-1.3h5.289a.619.619,0,0,0,.651-.488l1.627-4.964A.734.734,0,0,1,64.29,18.688Z" transform="translate(-11.4 -4.611)"/>
    <path id="패스_609" data-name="패스 609" class="cls-1" d="M93.39,18.69l1.627,4.964a.682.682,0,0,0,.651.488h5.208a.71.71,0,0,1,.407,1.3l-4.231,3.092a.737.737,0,0,0-.244.814l1.627,4.964a.74.74,0,0,1-1.139.814l-4.231-3.092a.739.739,0,0,0-.814,0L88.02,35.209a.749.749,0,0,1-1.139-.814l1.627-4.964a.737.737,0,0,0-.244-.814l-4.231-3.092a.723.723,0,0,1,.407-1.3h5.208a.619.619,0,0,0,.651-.488l1.627-4.964A.778.778,0,0,1,93.39,18.69Z" transform="translate(-16.821 -4.613)"/>
    <path id="패스_610" data-name="패스 610" class="cls-1" d="M122.39,18.688l1.627,4.964a.682.682,0,0,0,.651.488h5.208a.71.71,0,0,1,.407,1.3l-4.231,3.092a.737.737,0,0,0-.244.814l1.627,4.964a.74.74,0,0,1-1.139.814l-4.231-3.092a.739.739,0,0,0-.814,0l-4.231,3.092a.749.749,0,0,1-1.139-.814l1.627-4.964a.737.737,0,0,0-.244-.814l-4.231-3.092a.723.723,0,0,1,.407-1.3h5.208a.619.619,0,0,0,.651-.488l1.627-4.964A.793.793,0,0,1,122.39,18.688Z" transform="translate(-22.224 -4.611)"/>
    <path id="패스_611" data-name="패스 611" class="cls-1" d="M24.1,141.366V113.7H41.839v27.666" transform="translate(-5.71 -22.403)"/>
  </g>
</svg>
